<svg width="1150" height="165" viewBox="0 0 1150 165" fill="none" xmlns="http://www.w3.org/2000/svg">
<path d="M236.512 148.629V149.801L231.531 153.219L226.258 153.414C223.068 153.609 220.301 153.707 217.957 153.707C206.434 153.707 200.672 151.721 200.672 147.75C200.672 144.56 202.69 142.965 206.727 142.965C207.638 142.965 208.419 142.997 209.07 143.062L210.926 143.258C211.967 143.258 212.716 142.932 213.172 142.281C213.628 141.565 213.855 140.328 213.855 138.57C213.855 127.763 213.237 112.333 212 92.2812C210.763 72.2943 210.145 56.8971 210.145 46.0898L210.535 25.6797C210.535 21.7083 210.372 17.9974 210.047 14.5469C208.289 15.1328 206.727 15.4258 205.359 15.4258C202.234 15.4258 200.672 13.8307 200.672 10.6406C200.672 9.07812 201.648 7.71094 203.602 6.53906C205.555 5.30208 208.094 4.39062 211.219 3.80469C216.622 2.82812 221.342 2.33984 225.379 2.33984C226.941 2.33984 228.309 2.89323 229.48 4C230.652 5.04167 231.238 6.3112 231.238 7.80859C231.238 9.24089 230.783 10.5104 229.871 11.6172C229.025 12.6589 227.918 13.1797 226.551 13.1797C225.77 13.1797 225.118 13.1471 224.598 13.082H223.035C221.668 13.082 220.691 13.375 220.105 13.9609C219.52 14.5469 219.227 15.6211 219.227 17.1836C219.227 30.7253 220.04 50.224 221.668 75.6797C223.296 101.135 224.109 120.634 224.109 134.176V141.891C225.477 141.695 226.844 141.598 228.211 141.598C233.745 141.598 236.512 143.941 236.512 148.629Z" fill="black"/>
<path d="M316.102 112.398C319.747 125.289 322.059 133.004 323.035 135.543C325.704 107.288 327.039 73.4661 327.039 34.0781C327.039 33.1667 327.007 32.2878 326.941 31.4414L326.746 28.707C326.746 24.7357 328.406 22.75 331.727 22.75C333.549 22.75 334.949 23.4987 335.926 24.9961C336.902 26.4935 337.391 28.349 337.391 30.5625V45.6992C337.26 57.4831 336.87 71.4479 336.219 87.5938C335.633 103.74 334.786 118.16 333.68 130.855C332.638 143.486 331.466 150.842 330.164 152.926C326.453 154.033 324.109 154.586 323.133 154.586C321.44 154.586 320.203 154.163 319.422 153.316C318.641 152.405 318.022 150.908 317.566 148.824C317.111 146.936 316.72 145.634 316.395 144.918L316.492 144.527V144.039C316.492 140.979 314.279 132.743 309.852 119.332C305.424 105.921 300.314 91.4674 294.52 75.9727C288.79 60.4779 284.396 49.2148 281.336 42.1836V142.867C281.336 142.867 281.596 143.323 282.117 144.234C282.964 145.602 283.387 146.708 283.387 147.555C283.387 149.247 282.768 150.712 281.531 151.949C280.359 153.186 278.96 153.805 277.332 153.805C272.97 153.805 270.789 149.736 270.789 141.598L270.398 73.043C270.398 68.8763 270.594 62.6589 270.984 54.3906C271.375 46.0573 271.57 39.8398 271.57 35.7383C271.57 29.4883 274.012 24.5729 278.895 20.9922V22.2617C279.415 21.9362 279.904 21.7734 280.359 21.7734C283.484 21.7734 287.391 27.1445 292.078 37.8867C295.724 46.2852 299.109 55.4648 302.234 65.4258C305.424 75.3867 309.07 87.6263 313.172 102.145L316.102 112.398Z" fill="black"/>
<path d="M383.094 37.4961C381.727 41.8581 381.043 45.6992 381.043 49.0195C381.043 52.8607 381.596 56.7669 382.703 60.7383C383.875 64.7096 385.405 68.2904 387.293 71.4805C392.176 80.1393 396.017 87.2031 398.816 92.6719C400.639 96.3177 402.104 100.615 403.211 105.562C404.383 110.51 404.969 115.523 404.969 120.602C404.969 128.674 403.113 136.389 399.402 143.746C397.514 147.522 394.878 150.549 391.492 152.828C388.107 155.042 384.331 156.181 380.164 156.246V156.734C377.69 156.344 375.639 155.465 374.012 154.098C372.384 152.796 371.44 151.103 371.18 149.02L373.426 145.602C375.379 145.992 376.616 146.253 377.137 146.383C378.96 146.839 380.49 147.066 381.727 147.066C384.201 147.066 386.382 145.992 388.27 143.844C390.158 141.695 391.59 138.896 392.566 135.445C394.324 129.13 395.203 123.368 395.203 118.16C395.203 113.733 394.422 109.143 392.859 104.391C391.362 99.5729 389.344 94.918 386.805 90.4258L384.949 87.2031C382.215 82.5156 379.969 78.4466 378.211 74.9961C376.453 71.4805 374.956 67.7044 373.719 63.668C372.091 58.5898 371.277 53.349 371.277 47.9453C371.277 41.8906 372.645 35.8034 375.379 29.6836C376.746 26.4935 378.634 23.9544 381.043 22.0664C383.517 20.1133 386.284 19.1367 389.344 19.1367C391.818 19.1367 394.064 19.918 396.082 21.4805C398.165 22.9779 399.207 24.8333 399.207 27.0469C399.207 28.2188 398.719 29.1628 397.742 29.8789C396.766 30.5299 395.626 30.8555 394.324 30.8555C392.892 30.8555 391.492 30.4648 390.125 29.6836C388.628 29.7487 387.26 30.4974 386.023 31.9297C384.786 33.362 383.81 35.2174 383.094 37.4961Z" fill="black"/>
<path d="M488.367 68.2578C488.367 127.438 479.773 157.027 462.586 157.027C459.396 157.027 456.531 156.311 453.992 154.879C451.453 153.447 449.402 151.428 447.84 148.824C446.212 146.09 444.878 143.225 443.836 140.23C442.794 137.171 442.013 133.72 441.492 129.879C440.581 123.173 440.125 115.816 440.125 107.809C439.799 91.8581 439.637 74.2799 439.637 55.0742C439.637 50.4518 439.474 43.974 439.148 35.6406L438.758 26.4609C439.995 23.6615 441.427 22.2617 443.055 22.2617C444.617 22.2617 446.017 23.4661 447.254 25.875C448.491 28.2839 449.109 30.888 449.109 33.6875V88.082C449.109 92.8346 449.598 99.8984 450.574 109.273C451.486 118.974 451.941 126.038 451.941 130.465C451.941 140.23 456.173 145.113 464.637 145.113C474.142 145.113 478.895 109.273 478.895 37.5938V24.6055C478.829 24.1497 478.797 23.6289 478.797 23.043C478.797 21.4154 479.188 20.2435 479.969 19.5273C480.75 18.7461 482.182 18.3555 484.266 18.3555C485.958 18.3555 487.326 18.8763 488.367 19.918C489.409 20.8945 490.027 22.0339 490.223 23.3359C490.353 24.8984 490.418 26.4609 490.418 28.0234C490.418 30.6276 490.19 34.013 489.734 38.1797C489.279 42.3464 489.051 45.6667 489.051 48.1406C489.051 50.3542 488.921 53.1211 488.66 56.4414C488.335 60.543 488.172 63.3424 488.172 64.8398C488.172 65.4909 488.204 66.0443 488.27 66.5C488.335 67.0208 488.367 67.6068 488.367 68.2578Z" fill="black"/>
<path d="M536.316 89.9375C535.535 91.7604 535.145 94.5599 535.145 98.3359V100.777C535.145 105.139 535.014 110.413 534.754 116.598C534.493 122.783 534.363 128.121 534.363 132.613C534.363 141.793 536.609 146.383 541.102 146.383L544.812 146.188C546.049 146.122 547.579 146.09 549.402 146.09C556.564 146.09 560.145 148.043 560.145 151.949C560.145 153.316 559.526 154.488 558.289 155.465C557.117 156.441 555.717 157.027 554.09 157.223C549.207 155.66 543.25 154.879 536.219 154.879C534.135 156.116 531.857 156.734 529.383 156.734C527.885 156.734 526.551 156.051 525.379 154.684C524.272 153.316 523.719 151.819 523.719 150.191C523.719 139.579 524.142 124.671 524.988 105.465C525.835 86.3893 526.258 71.513 526.258 60.8359V59.3711C525.477 51.0378 525.086 44.7878 525.086 40.6211C525.086 27.9909 527.397 21.6758 532.02 21.6758C533.387 21.6758 534.559 22.1641 535.535 23.1406C536.577 24.1172 537.098 25.2891 537.098 26.6562C537.098 28.5443 536.87 31.0833 536.414 34.2734C535.958 37.4635 535.73 40.0026 535.73 41.8906C535.73 47.2292 535.828 55.237 536.023 65.9141C536.219 76.526 536.316 84.5339 536.316 89.9375Z" fill="black"/>
<path d="M603.113 135.445L603.406 128.609C602.885 127.047 601.844 112.333 600.281 84.4688C598.719 56.5391 597.84 38.8633 597.645 31.4414C589.962 31.2461 584.982 30.3997 582.703 28.9023C581.336 27.9909 580.652 26.8516 580.652 25.4844C580.652 24.3125 581.336 23.3034 582.703 22.457C584.07 21.6107 585.503 21.1875 587 21.1875C589.995 21.1875 594.52 21.4805 600.574 22.0664C606.368 22.7174 610.893 23.043 614.148 23.043C614.734 23.043 615.255 23.0104 615.711 22.9453H617.371C621.538 22.9453 623.621 24.5404 623.621 27.7305C623.621 29.293 622.938 30.5951 621.57 31.6367C620.268 32.6784 618.738 33.1992 616.98 33.1992C615.613 33.1992 613.888 32.9714 611.805 32.5156L607.801 31.832L607.605 32.7109L607.41 33.8828C607.41 46.9036 608.517 65.8164 610.73 90.6211C612.944 115.426 614.051 134.371 614.051 147.457C614.051 149.02 613.335 150.419 611.902 151.656C610.535 152.828 608.973 153.414 607.215 153.414L603.504 150.777L603.113 135.445Z" fill="black"/>
<path d="M793.055 100.289C792.078 88.8307 791.59 80.4974 791.59 75.2891C791.59 71.9688 791.72 67.8346 791.98 62.8867C792.241 58.0039 792.371 53.9023 792.371 50.582C791.785 52.4049 789.539 61.6172 785.633 78.2188C781.401 95.9271 777.43 110.868 773.719 123.043C769.682 136.259 766.395 142.867 763.855 142.867C761.316 142.867 759.298 142.086 757.801 140.523C756.303 138.961 755.555 136.878 755.555 134.273C755.555 130.367 754.383 123.141 752.039 112.594C749.76 101.982 747.026 90.7188 743.836 78.8047C740.646 66.8255 737.846 57.2227 735.438 49.9961L734.266 72.5547C733.68 82.9062 733.224 91.4674 732.898 98.2383C732.638 105.009 732.378 112.301 732.117 120.113C731.792 130.4 731.629 138.798 731.629 145.309L731.824 148.336C731.889 149.247 731.922 150.224 731.922 151.266C731.922 153.544 731.434 155.204 730.457 156.246C729.48 157.353 727.755 157.906 725.281 157.906C723.914 157.906 722.612 157.418 721.375 156.441C720.203 155.53 719.617 154.423 719.617 153.121C719.617 139.97 720.659 119.592 722.742 91.9883C724.76 65.2956 725.77 44.918 725.77 30.8555C724.988 29.5534 724.598 28.2513 724.598 26.9492C724.598 25.3216 725.346 24.1172 726.844 23.3359C728.406 22.4896 730.229 22.0664 732.312 22.0664C734.07 22.0664 737.26 28.349 741.883 40.9141C746.505 53.4141 751.16 67.6068 755.848 83.4922C760.535 99.3125 763.562 110.771 764.93 117.867C765.646 115.523 766.883 110.576 768.641 103.023C773.263 83.1667 777.527 66.2721 781.434 52.3398C783.973 43.3555 786.447 36.1615 788.855 30.7578C791.395 25.1589 793.641 22.3594 795.594 22.3594C797.482 22.3594 799.174 22.8802 800.672 23.9219C802.169 24.8984 802.918 26.2005 802.918 27.8281C802.918 38.1797 803.341 52.5677 804.188 70.9922C805.034 89.4167 805.457 103.316 805.457 112.691L805.262 123.238C805.066 127.926 804.969 131.441 804.969 133.785V133.883C804.969 135.055 805.359 139.775 806.141 148.043L806.531 152.047C807.117 153.544 807.41 154.814 807.41 155.855C807.41 158.069 806.759 160.055 805.457 161.812C804.22 163.57 802.625 164.449 800.672 164.449C796.505 164.449 794.422 160.283 794.422 151.949C794.422 147.262 794.454 142.997 794.52 139.156V126.363C794.52 120.374 794.031 111.682 793.055 100.289Z" fill="black"/>
<path d="M867.664 26.4609C870.529 27.763 871.961 29.2279 871.961 30.8555C871.961 32.2227 871.408 33.4596 870.301 34.5664C869.194 35.6081 867.794 36.4544 866.102 37.1055C859.982 35.0872 854.936 33.8177 850.965 33.2969C851.16 36.0964 851.258 38.9609 851.258 41.8906C851.258 45.7969 851.128 50.582 850.867 56.2461C850.542 63.2773 850.379 68.0625 850.379 70.6016L850.965 73.7266L854.188 73.5312C855.294 73.4661 856.596 73.4336 858.094 73.4336C864.539 73.4336 867.762 75.2565 867.762 78.9023C867.762 80.3346 867.143 81.6042 865.906 82.7109C864.734 83.7526 863.237 84.2734 861.414 84.2734C859.461 84.2734 857.573 84.1432 855.75 83.8828H850.672C851.062 88.9609 851.258 94.0065 851.258 99.0195C851.258 103.837 851.128 109.859 850.867 117.086C850.542 126.07 850.379 132.125 850.379 135.25C850.379 142.737 850.509 146.48 850.77 146.48L857.312 146.188L865.516 145.992C870.594 145.992 873.133 147.62 873.133 150.875C873.133 152.763 872.286 154.195 870.594 155.172C868.966 156.148 866.948 156.637 864.539 156.637H847.645C845.822 156.637 844.194 156.018 842.762 154.781C841.395 153.609 840.678 152.177 840.613 150.484V145.211C840.613 143.779 840.581 142.444 840.516 141.207L840.32 137.008C840.32 134.859 840.158 130.595 839.832 124.215C839.507 117.9 839.344 113.635 839.344 111.422C839.344 104.065 839.572 94.332 840.027 82.2227C840.483 70.1133 840.711 60.3802 840.711 53.0234C840.711 51.5911 840.548 48.7591 840.223 44.5273C839.832 40.8164 839.637 38.0169 839.637 36.1289C839.637 26.6888 842.436 21.9688 848.035 21.9688C850.574 21.9688 853.764 22.3919 857.605 23.2383C861.512 24.0195 864.865 25.0938 867.664 26.4609Z" fill="black"/>
<path d="M918.738 124.117C917.371 124.117 916.134 122.49 915.027 119.234C913.855 115.979 913.27 111.064 913.27 104.488C913.27 101.949 913.4 97.1641 913.66 90.1328C913.921 83.5573 914.051 78.1211 914.051 73.8242C914.051 68.0951 913.888 57.1576 913.562 41.0117C913.237 24.8659 913.074 13.9284 913.074 8.19922C913.074 6.11589 913.921 4.32552 915.613 2.82812C917.371 1.26562 919.357 0.484375 921.57 0.484375C922.938 0.484375 924.077 0.972656 924.988 1.94922C925.965 2.86068 926.453 4 926.453 5.36719C926.453 16.0443 925.77 31.9948 924.402 53.2188C922.97 73.9219 922.254 89.8398 922.254 100.973C922.254 107.939 922.156 113.017 921.961 116.207C921.766 119.397 921.44 121.513 920.984 122.555C920.529 123.596 919.78 124.117 918.738 124.117ZM915.125 158.492C913.497 158.492 911.967 157.743 910.535 156.246C909.168 154.814 908.484 152.991 908.484 150.777C908.484 148.434 909.298 146.35 910.926 144.527C912.553 142.704 914.507 141.793 916.785 141.793C919.259 141.793 921.245 142.737 922.742 144.625C924.24 146.448 924.988 148.727 924.988 151.461C924.988 156.148 921.701 158.492 915.125 158.492Z" fill="black"/>
<path d="M1088.88 101.84C1083.53 106.152 1076.87 108.503 1070 108.503C1063.13 108.503 1056.47 106.152 1051.12 101.84C1049.49 100.482 1047.38 99.8288 1045.26 100.024C1043.15 100.219 1041.2 101.246 1039.84 102.88C1038.48 104.514 1037.83 106.62 1038.02 108.735C1038.22 110.851 1039.25 112.802 1040.88 114.16C1049.05 120.981 1059.36 124.717 1070 124.717C1080.64 124.717 1090.95 120.981 1099.12 114.16C1100.75 112.802 1101.78 110.851 1101.98 108.735C1102.17 106.62 1101.52 104.514 1100.16 102.88C1099.49 102.071 1098.66 101.402 1097.73 100.912C1096.8 100.422 1095.78 100.12 1094.74 100.024C1092.62 99.8288 1090.51 100.482 1088.88 101.84ZM1046 81.68L1048.32 79.28L1050.64 81.68C1051.38 82.4298 1052.27 83.025 1053.24 83.4311C1054.22 83.8373 1055.26 84.0464 1056.32 84.0464C1057.38 84.0464 1058.42 83.8373 1059.4 83.4311C1060.37 83.025 1061.26 82.4298 1062 81.68C1062.75 80.9363 1063.34 80.0515 1063.75 79.0766C1064.16 78.1017 1064.37 77.0561 1064.37 76C1064.37 74.9439 1064.16 73.8982 1063.75 72.9234C1063.34 71.9485 1062.75 71.0637 1062 70.32L1059.6 68L1062 65.68C1063.51 64.1311 1064.34 62.0473 1064.31 59.8868C1064.28 57.7264 1063.39 55.6664 1061.84 54.16C1060.29 52.6536 1058.21 51.8241 1056.05 51.8541C1053.89 51.8841 1051.83 52.7711 1050.32 54.32L1048 56.72L1046 54.32C1044.49 52.7711 1042.43 51.8841 1040.27 51.8541C1038.11 51.8241 1036.03 52.6536 1034.48 54.16C1032.93 55.6664 1032.04 57.7264 1032.01 59.8868C1031.98 62.0473 1032.81 64.1311 1034.32 65.68L1036.72 68L1034.32 70.32C1033.57 71.0637 1032.97 71.9485 1032.57 72.9234C1032.16 73.8982 1031.95 74.9439 1031.95 76C1031.95 77.0561 1032.16 78.1017 1032.57 79.0766C1032.97 80.0515 1033.57 80.9363 1034.32 81.68C1035.06 82.4298 1035.95 83.025 1036.92 83.4311C1037.9 83.8373 1038.94 84.0464 1040 84.0464C1041.06 84.0464 1042.1 83.8373 1043.08 83.4311C1044.05 83.025 1044.94 82.4298 1045.68 81.68H1046ZM1070 4C1054.18 4 1038.71 8.69192 1025.55 17.4824C1012.4 26.2729 1002.14 38.7672 996.09 53.3853C990.035 68.0034 988.45 84.0887 991.537 99.6072C994.624 115.126 1002.24 129.38 1013.43 140.569C1024.62 151.757 1038.87 159.376 1054.39 162.463C1069.91 165.55 1086 163.965 1100.61 157.91C1115.23 151.855 1127.73 141.602 1136.52 128.446C1145.31 115.29 1150 99.8225 1150 84C1150 73.4942 1147.93 63.0914 1143.91 53.3853C1139.89 43.6793 1134 34.8601 1126.57 27.4315C1119.14 20.0028 1110.32 14.11 1100.61 10.0896C1090.91 6.06926 1080.51 4 1070 4ZM1070 148C1057.34 148 1044.97 144.246 1034.44 137.214C1023.92 130.182 1015.72 120.186 1010.87 108.492C1006.03 96.7972 1004.76 83.929 1007.23 71.5142C1009.7 59.0994 1015.79 47.6957 1024.75 38.7452C1033.7 29.7946 1045.1 23.6992 1057.51 21.2297C1069.93 18.7603 1082.8 20.0277 1094.49 24.8717C1106.19 29.7157 1116.18 37.9187 1123.21 48.4435C1130.25 58.9682 1134 71.342 1134 84C1134 100.974 1127.26 117.252 1115.25 129.255C1103.25 141.257 1086.97 148 1070 148ZM1110 54.32C1109.26 53.5702 1108.37 52.975 1107.4 52.5689C1106.42 52.1627 1105.38 51.9536 1104.32 51.9536C1103.26 51.9536 1102.22 52.1627 1101.24 52.5689C1100.27 52.975 1099.38 53.5702 1098.64 54.32L1096.32 56.72L1094 54.32C1092.49 52.8136 1090.45 51.9673 1088.32 51.9673C1086.19 51.9673 1084.15 52.8136 1082.64 54.32C1081.13 55.8264 1080.29 57.8696 1080.29 60C1080.29 62.1304 1081.13 64.1736 1082.64 65.68L1085.04 68L1082.64 70.32C1081.89 71.0637 1081.3 71.9485 1080.89 72.9234C1080.48 73.8982 1080.27 74.9439 1080.27 76C1080.27 77.0561 1080.48 78.1017 1080.89 79.0766C1081.3 80.0515 1081.89 80.9363 1082.64 81.68C1083.38 82.4298 1084.27 83.025 1085.24 83.4311C1086.22 83.8373 1087.26 84.0464 1088.32 84.0464C1089.38 84.0464 1090.42 83.8373 1091.4 83.4311C1092.37 83.025 1093.26 82.4298 1094 81.68L1096.32 79.28L1098.64 81.68C1099.38 82.4298 1100.27 83.025 1101.24 83.4311C1102.22 83.8373 1103.26 84.0464 1104.32 84.0464C1105.38 84.0464 1106.42 83.8373 1107.4 83.4311C1108.37 83.025 1109.26 82.4298 1110 81.68C1110.75 80.9363 1111.34 80.0515 1111.75 79.0766C1112.16 78.1017 1112.37 77.0561 1112.37 76C1112.37 74.9439 1112.16 73.8982 1111.75 72.9234C1111.34 71.9485 1110.75 71.0637 1110 70.32L1107.6 68L1110 65.68C1110.75 64.9363 1111.34 64.0515 1111.75 63.0766C1112.16 62.1017 1112.37 61.0561 1112.37 60C1112.37 58.9439 1112.16 57.8982 1111.75 56.9234C1111.34 55.9485 1110.75 55.0637 1110 54.32Z" fill="black"/>
<path d="M157.419 130.769L97.1126 13.9483C95.3659 10.6161 92.8674 7.85219 89.8658 5.93142C86.8641 4.01065 83.464 3 80.0035 3C76.543 3 73.1428 4.01065 70.1411 5.93142C67.1395 7.85219 64.641 10.6161 62.8943 13.9483L2.58819 130.769C0.893272 134.002 0 137.681 0 141.426C0 145.172 0.893272 148.85 2.58819 152.084C4.31558 155.433 6.81058 158.208 9.81721 160.127C12.8238 162.045 16.2338 163.036 19.6973 162.999H140.31C143.771 163.033 147.178 162.041 150.182 160.123C153.186 158.205 155.679 155.43 157.405 152.084C159.102 148.852 159.998 145.174 160 141.428C160.002 137.683 159.112 134.004 157.419 130.769ZM143.075 142.846C142.794 143.379 142.39 143.817 141.905 144.115C141.419 144.413 140.87 144.559 140.316 144.538H19.6973C19.1435 144.559 18.5948 144.413 18.1093 144.115C17.6238 143.817 17.2194 143.379 16.9389 142.846C16.701 142.414 16.5751 141.918 16.5751 141.411C16.5751 140.904 16.701 140.408 16.9389 139.976L77.245 23.1558C77.5436 22.6431 77.9524 22.2217 78.4341 21.93C78.9159 21.6383 79.4553 21.4855 80.0035 21.4855C80.5516 21.4855 81.091 21.6383 81.5728 21.93C82.0545 22.2217 82.4633 22.6431 82.7619 23.1558L143.061 139.976C143.301 140.406 143.429 140.902 143.432 141.409C143.434 141.915 143.311 142.413 143.075 142.846ZM71.7282 92.2312V67.6164C71.7282 65.1683 72.6 62.8204 74.1519 61.0894C75.7039 59.3583 77.8087 58.3858 80.0035 58.3858C82.1982 58.3858 84.303 59.3583 85.855 61.0894C87.4069 62.8204 88.2787 65.1683 88.2787 67.6164V92.2312C88.2787 94.6793 87.4069 97.0272 85.855 98.7582C84.303 100.489 82.1982 101.462 80.0035 101.462C77.8087 101.462 75.7039 100.489 74.1519 98.7582C72.6 97.0272 71.7282 94.6793 71.7282 92.2312ZM91.0372 123C91.0372 125.434 90.3901 127.814 89.1777 129.837C87.9653 131.861 86.242 133.439 84.2259 134.37C82.2097 135.302 79.9912 135.546 77.8509 135.071C75.7106 134.596 73.7445 133.424 72.2014 131.702C70.6584 129.981 69.6075 127.788 69.1818 125.401C68.756 123.013 68.9745 120.539 69.8096 118.29C70.6447 116.041 72.059 114.119 73.8735 112.767C75.6879 111.414 77.8212 110.692 80.0035 110.692C82.9298 110.692 85.7362 111.989 87.8055 114.297C89.8747 116.605 91.0372 119.736 91.0372 123Z" fill="black"/>
</svg>
